HIERARCHY
ROOT hip
{
  OFFSET 0 0 0
  CHANNELS 6 Xposition Yposition Zposition Zrotation Yrotation Xrotation
  JOINT abdomen
  {
    OFFSET 0 20.6881 -0.73152
    CHANNELS 3 Zrotation Xrotation Yrotation
    JOINT chest
    {
      OFFSET 0 11.7043 -0.48768
      CHANNELS 3 Zrotation Xrotation Yrotation
      JOINT neck
      {
        OFFSET 0 22.1894 -2.19456
        CHANNELS 3 Zrotation Xrotation Yrotation
        JOINT head
        {
          OFFSET -0.24384 7.07133 1.2192
          CHANNELS 3 Zrotation Xrotation Yrotation
          JOINT leftEye
          {
            OFFSET 4.14528 8.04674 8.04672
            CHANNELS 3 Zrotation Xrotation Yrotation
            End Site
            {
              OFFSET 1 0 0
            }
          }
          JOINT rightEye
          {
            OFFSET -3.6576 8.04674 8.04672
            CHANNELS 3 Zrotation Xrotation Yrotation
            End Site
            {
              OFFSET 1 0 0
            }
          }
        }
      }
      JOINT rCollar
      {
        OFFSET -2.68224 19.2634 -4.8768
        CHANNELS 3 Zrotation Xrotation Yrotation
        JOINT rShldr
        {
          OFFSET -8.77824 -1.95073 1.46304
          CHANNELS 3 Zrotation Xrotation Yrotation
          JOINT rForeArm
          {
            OFFSET -28.1742 -1.7115 0.48768
            CHANNELS 3 Zrotation Xrotation Yrotation
            JOINT rHand
            {
              OFFSET -22.5879 0.773209 7.07136
              CHANNELS 3 Zrotation Xrotation Yrotation
              JOINT rThumb1
              {
                OFFSET -1.2192 -0.487915 3.41376
                CHANNELS 3 Zrotation Xrotation Yrotation
                JOINT rThumb2
                {
                  OFFSET -3.37035 -0.52449 3.41376
                  CHANNELS 3 Zrotation Xrotation Yrotation
                  End Site
                  {
                    OFFSET -1.78271 -1.18214 1.43049
                  }
                }
              }
              JOINT rIndex1
              {
                OFFSET -7.75947 0.938293 5.60832
                CHANNELS 3 Zrotation Xrotation Yrotation
                JOINT rIndex2
                {
                  OFFSET -2.54057 -0.884171 1.56538
                  CHANNELS 3 Zrotation Xrotation Yrotation
                  End Site
                  {
                    OFFSET -1.62519 -0.234802 1.16502
                  }
                }
              }
              JOINT rMid1
              {
                OFFSET -8.24714 1.18213 3.41376
                CHANNELS 3 Zrotation Xrotation Yrotation
                JOINT rMid2
                {
                  OFFSET -3.10165 -0.590103 1.0647
                  CHANNELS 3 Zrotation Xrotation Yrotation
                  End Site
                  {
                    OFFSET -2.48547 -0.328903 0.83742
                  }
                }
              }
              JOINT rRing1
              {
                OFFSET -8.82822 0.546677 1.51678
                CHANNELS 3 Zrotation Xrotation Yrotation
                JOINT rRing2
                {
                  OFFSET -2.60934 -0.819778 -0.0198488
                  CHANNELS 3 Zrotation Xrotation Yrotation
                  End Site
                  {
                    OFFSET -2.33842 -0.294052 0.168128
                  }
                }
              }
              JOINT rPinky1
              {
                OFFSET -8.27202 -0.0477905 -0.4584
                CHANNELS 3 Zrotation Xrotation Yrotation
                JOINT rPinky2
                {
                  OFFSET -1.82734 -0.647385 -0.700984
                  CHANNELS 3 Zrotation Xrotation Yrotation
                  End Site
                  {
                    OFFSET -1.69225 -0.51767 -0.607171
                  }
                }
              }
            }
          }
        }
      }
      JOINT lCollar
      {
        OFFSET 2.68224 19.2634 -4.8768
        CHANNELS 3 Zrotation Xrotation Yrotation
        JOINT lShldr
        {
          OFFSET 8.77824 -1.95073 1.46304
          CHANNELS 3 Zrotation Xrotation Yrotation
          JOINT lForeArm
          {
            OFFSET 28.1742 -1.7115 0.48768
            CHANNELS 3 Zrotation Xrotation Yrotation
            JOINT lHand
            {
              OFFSET 22.5879 0.773209 7.07136
              CHANNELS 3 Zrotation Xrotation Yrotation
              JOINT lThumb1
              {
                OFFSET 1.2192 -0.487915 3.41376
                CHANNELS 3 Zrotation Xrotation Yrotation
                JOINT lThumb2
                {
                  OFFSET 3.37035 -0.52449 3.41376
                  CHANNELS 3 Zrotation Xrotation Yrotation
                  End Site
                  {
                    OFFSET 1.78271 -1.18214 1.43049
                  }
                }
              }
              JOINT lIndex1
              {
                OFFSET 7.75947 0.938293 5.60832
                CHANNELS 3 Zrotation Xrotation Yrotation
                JOINT lIndex2
                {
                  OFFSET 2.54057 -0.884171 1.56538
                  CHANNELS 3 Zrotation Xrotation Yrotation
                  End Site
                  {
                    OFFSET 1.62519 -0.234802 1.16502
                  }
                }
              }
              JOINT lMid1
              {
                OFFSET 8.24714 1.18213 3.41376
                CHANNELS 3 Zrotation Xrotation Yrotation
                JOINT lMid2
                {
                  OFFSET 3.10165 -0.590103 1.0647
                  CHANNELS 3 Zrotation Xrotation Yrotation
                  End Site
                  {
                    OFFSET 2.48547 -0.328903 0.83742
                  }
                }
              }
              JOINT lRing1
              {
                OFFSET 8.82822 0.546677 1.51678
                CHANNELS 3 Zrotation Xrotation Yrotation
                JOINT lRing2
                {
                  OFFSET 2.60934 -0.819778 -0.0198488
                  CHANNELS 3 Zrotation Xrotation Yrotation
                  End Site
                  {
                    OFFSET 2.33842 -0.294052 0.168128
                  }
                }
              }
              JOINT lPinky1
              {
                OFFSET 8.27202 -0.0477905 -0.4584
                CHANNELS 3 Zrotation Xrotation Yrotation
                JOINT lPinky2
                {
                  OFFSET 1.82734 -0.647385 -0.700984
                  CHANNELS 3 Zrotation Xrotation Yrotation
                  End Site
                  {
                    OFFSET 1.69225 -0.51767 -0.607171
                  }
                }
              }
            }
          }
        }
      }
    }
  }
  JOINT rButtock
  {
    OFFSET -8.77824 4.35084 1.2192
    CHANNELS 3 Zrotation Xrotation Yrotation
    JOINT rThigh
    {
      OFFSET 0 -1.70687 -2.19456
      CHANNELS 3 Zrotation Xrotation Yrotation
      JOINT rShin
      {
        OFFSET 0 -36.8199 0.73152
        CHANNELS 3 Zrotation Xrotation Yrotation
        JOINT rFoot
        {
          OFFSET 0.73152 -45.1104 -5.12064
          CHANNELS 3 Zrotation Xrotation Yrotation
          End Site
          {
            OFFSET -1.1221 -3.69964 12.103
          }
        }
      }
    }
  }
  JOINT lButtock
  {
    OFFSET 8.77824 4.35084 1.2192
    CHANNELS 3 Zrotation Xrotation Yrotation
    JOINT lThigh
    {
      OFFSET 0 -1.70687 -2.19456
      CHANNELS 3 Zrotation Xrotation Yrotation
      JOINT lShin
      {
        OFFSET 0 -36.8199 0.73152
        CHANNELS 3 Zrotation Xrotation Yrotation
        JOINT lFoot
        {
          OFFSET -0.73152 -45.1104 -5.12064
          CHANNELS 3 Zrotation Xrotation Yrotation
          End Site
          {
            OFFSET 1.1221 -3.69964 12.103
          }
        }
      }
    }
  }
}
MOTION
Frames:	8
Frame Time:	0.03333
0.0 0.0 0.0 0.0 0.0 0.0 0.0 0.0 0.0 0.0 0.0 0.0 0.0 0.0 0.0 0.0 0.0 0.0 0.0 0.0 0.0 0.0 0.0 0.0 0.0 0.0 0.0 0.0 0.0 0.0 0.0 0.0 0.0 0.0 0.0 0.0 0.0 0.0 0.0 0.0 0.0 0.0 0.0 0.0 0.0 0.0 0.0 0.0 0.0 0.0 0.0 0.0 0.0 0.0 0.0 0.0 0.0 0.0 0.0 0.0 0.0 0.0 0.0 0.0 0.0 0.0 0.0 0.0 0.0 0.0 0.0 0.0 0.0 0.0 0.0 0.0 0.0 0.0 0.0 0.0 0.0 0.0 0.0 0.0 0.0 0.0 0.0 0.0 0.0 0.0 0.0 0.0 0.0 0.0 0.0 0.0 0.0 0.0 0.0 0.0 0.0 0.0 0.0 0.0 0.0 0.0 0.0 0.0 0.0 0.0 0.0 0.0 0.0 0.0 0.0 0.0 0.0 0.0 0.0 0.0 0.0 0.0 0.0 0.0 0.0 0.0 0.0 0.0 0.0 0.0 0.0 0.0
-0.0245 80.1292 -0.0286 -17.004924 82.360584 -13.844487 0.021322 3.275794 -60.330971 5.756784 -3.566736 65.917156 7.444725 20.348405 83.851094 -31.690615 3.763447 -94.76807 0.00192 0.0 0.00279 0.000834 -0.0 -0.002686 -123.45639 59.125737 127.14696 67.225355 -25.659598 90.976864 127.238745 -22.440768 129.276473 -158.383095 57.292882 134.157698 15.207914 -15.103367 -0.328358 -13.758769 12.267068 2.363377 39.514373 -59.845203 0.653899 77.02826 -60.575004 22.777436 -158.506636 -0.150197 142.137276 -110.355075 60.072272 100.953012 -4.4e-05 0.205012 0.064665 -154.990165 4.716931 171.23209 -18.339005 -31.528636 -17.553918 -146.342785 10.40466 -143.188691 155.743304 -5.101416 -162.172121 61.623712 4.010292 2.652281 121.311716 -42.028069 141.958826 -13.897075 -17.342744 -11.418576 167.122779 -4.798662 -89.809124 71.389176 0.582732 -23.266863 -8.845251 -15.518681 4.113447 13.037442 30.542214 -11.199461 168.050028 -30.097141 -145.33197 -132.774987 -76.374664 -101.827678 -0.005569 1.881436 -0.591891 40.230564 76.779412 -53.266651 144.143663 8.882938 140.903935 45.854555 -49.821137 46.424294 -0.032122 0.000382 -0.025515 -11.756778 -27.562447 119.188451 40.474958 -27.56329 -104.450158 85.876782 -32.322105 7.176645 179.973778 75.749482 0.01834 -164.720438 45.73145 107.659681 44.426588 -25.1726 -72.034235 -84.267813 14.373791 -10.566687
0.0125 80.1184 -0.0642 -16.540351 82.302304 -13.28827 0.175974 1.38546 -101.688539 5.036745 0.541899 107.136188 7.230948 19.638142 80.048372 -30.924845 1.695187 -91.636666 0.005186 0.0 0.000673 -0.000688 -0.0 0.000494 -149.414711 24.010987 154.419207 101.657839 -37.738965 137.331439 -171.787951 51.125559 110.740874 164.47859 -29.832803 141.303094 -6.095138 5.889132 1.240211 -135.918887 -38.351385 114.982921 -52.20677 41.26068 41.647766 -176.704952 -28.917645 110.802653 -163.430538 -15.39799 144.365684 13.76858 -31.203967 -0.909171 -0.002282 3.199234 1.005238 10.367985 -4.536354 -0.629673 14.041944 48.494431 11.393648 4.721066 8.998289 2.109027 154.903931 0.228648 -161.024511 -123.235803 -22.613726 -176.872248 -168.389774 16.746458 -125.699089 -156.975139 -28.454111 -144.237254 -47.758351 -39.589813 -11.042035 138.64226 -2.086587 -116.120433 -18.378597 -32.988665 5.979022 7.326878 27.883029 -7.932323 151.663269 17.431547 -137.67621 -174.141556 -57.341682 -137.400127 145.11085 -0.688574 178.912622 149.974716 -36.379347 172.684613 77.437184 -51.55928 75.891248 92.55703 -51.281728 92.828994 0.005604 -2e-05 0.005218 -10.396037 -26.003158 -17.500419 -21.84509 48.129026 -50.786103 65.860295 46.890295 37.422352 179.982719 75.749447 0.015169 -163.040805 47.172522 -10.528803 -0.50892 59.024002 174.896377 -36.889717 22.778101 -168.439145
0.0344 80.1071 -0.06130000000000001 -16.328905 82.279251 -13.000312 -4.052803 3.16134 51.449414 -3.145004 -7.261233 -46.175179 -9.09555 14.889264 -24.161721 19.803918 -18.713329 16.26156 -0.000546 0.0 -0.00395 -0.000546 0.0 -0.00395 -4.338951 20.02041 5.302664 -97.85712 -0.128829 160.063464 -174.112801 1.527163 -150.97203 -6.435256 22.606014 0.815087 -175.001505 -12.653131 89.822015 -23.283397 -38.574539 1.181285 -158.715048 -30.717549 122.62973 -157.113293 -9.744223 119.41888 -162.224642 -11.53718 143.919622 -14.361229 37.257127 11.644322 0.005231 1.834882 0.574904 10.27103 -1.29003 -0.226188 8.450845 26.735178 7.428385 -147.299347 9.901357 -143.135581 -4.241619 -44.89998 8.680811 131.057566 33.966079 139.859554 37.450138 -13.608756 32.007158 -22.949893 -34.867599 -18.525378 158.0133 4.181355 -88.455089 130.349567 4.774597 -62.897286 -2.6399 -4.404069 1.422009 -69.479696 -55.446923 -21.59568 -5.814024 -18.097956 2.520382 -2.179043 2.893383 -0.390753 2.016348 -24.649658 8.340072 150.548702 -67.12791 176.236253 -27.649083 80.69608 -9.666265 153.68099 29.014904 146.122387 179.991915 75.748925 0.006589 166.809023 46.377729 -143.968536 -25.162032 -43.308363 122.111759 84.90681 -0.39067 10.512828 0.010059 -0.00119 0.010012 11.751385 -27.542297 70.618678 57.161403 20.59395 81.392896 -42.236001 9.951295 -153.730669
0.031599999999999996 80.0981 -0.0866 -17.065598 82.212686 -13.678866 -4.497005 1.783492 83.454262 -5.238796 -4.853353 -78.249385 6.931691 27.580608 127.243168 -28.102883 27.333469 -132.934094 0.000322 -0.0 -0.002084 0.001386 0.0 0.003389 -155.146453 -1.243608 161.348925 134.225415 18.371775 166.896015 -1.129268 11.597772 31.680261 -5.576074 20.147507 0.632981 8.790967 -8.782502 -0.685296 -10.082305 9.793985 3.050209 45.792291 -64.172461 4.650715 -172.023524 -37.508233 110.439858 -139.040977 38.170664 127.384005 -161.043715 1.386769 142.284028 -145.119073 0.628218 -179.325638 -58.237988 -77.617775 -79.644532 11.143206 37.03688 9.503431 4.276511 7.188404 1.802486 30.617691 58.642042 -33.040919 -80.792591 -5.87688 -66.601354 0.436313 -7.534439 -24.611058 6.900376 46.347889 -5.405035 -177.718397 -19.59127 -88.872786 106.283417 19.013204 -46.587165 145.139603 -5.916655 -118.579118 100.029253 54.026198 -79.145657 5.278659 13.96828 -3.345386 -6.835865 -10.865725 1.118666 0.062923 -3.642285 1.145966 155.952851 -17.16984 -173.891761 102.238493 -45.781545 100.423513 156.581136 44.854741 147.630253 0.00406 0.001245 0.004194 -11.824201 -27.691233 115.095019 55.480742 -24.143094 123.85456 118.185325 -38.730618 -164.806104 -179.964622 75.749547 -0.028215 -164.728552 46.5121 58.466297 53.708685 10.84211 12.660693 -49.149762 54.272141 -55.986264
0.030600000000000002 80.0821 -0.0861 -17.361239 82.253305 -13.870112 -4.104482 0.116412 121.843761 -5.629493 -1.087706 -116.544111 8.00413 22.313154 95.925185 -31.86685 10.622899 -105.341592 0.000273 -0.0 -0.001076 0.000273 -0.0 -0.001076 -155.562652 -3.893582 161.91877 126.038506 -34.266509 171.805127 -19.372893 -24.412813 16.19627 1.599043 -2.478675 0.620044 -2.461196 2.412271 0.428118 176.831048 -78.490257 98.28798 10.127371 -17.89724 -4.538948 15.538732 -2.712208 -1.434976 -14.964784 32.295016 10.910616 13.59178 -30.915671 -1.33021 0.000462 0.032841 0.010295 -0.481911 53.974595 12.891189 8.00966 25.110663 7.06856 -162.156927 61.300772 -149.849659 54.878051 66.627031 -57.69482 -68.480651 -7.568725 -78.024487 -173.441818 23.174023 -124.205315 -152.769516 -35.360871 -140.765088 7.373108 7.08323 -1.575891 9.933609 10.280954 -12.682408 169.35089 -47.495482 -121.418238 1.0812 26.324119 2.064282 -1.818074 -5.44445 0.947473 -178.260303 -52.22846 -140.355393 0.024202 -1.891747 0.594029 155.975074 -14.119196 -173.530872 160.829418 68.368434 151.111609 117.915756 -39.457015 115.348386 -0.012841 -0.001197 -0.009272 -10.363612 -26.125502 -9.256843 1.531566 46.213057 29.392257 -59.509274 8.816983 -14.319377 -0.005246 0.000498 -0.00326 12.612302 -27.05366 26.202481 16.87189 54.198538 -151.108784 175.503651 4.324113 -135.926148
0.030699999999999998 80.0677 -0.0947 -18.286491 82.281372 -14.7204 0.128506 0.272073 -114.652738 4.170359 1.609899 120.041464 -11.818885 17.669848 -45.365248 28.940763 -10.113481 37.184165 0.000629 0.0 0.001683 -0.000442 0.0 -0.003789 1.742129 -12.019152 -2.487778 -98.280897 -18.858229 -168.214184 16.529333 -3.342977 -62.358118 171.908524 -10.49447 144.863243 -161.07905 1.210393 89.065052 -143.966759 2.532758 71.322906 26.723841 -46.133383 -4.977188 -169.766116 -32.279055 110.044297 -143.562051 32.188735 131.259043 -4.957328 21.28416 4.766603 -145.119027 2.650998 -179.960226 -152.591802 -25.037388 -175.342634 -121.004865 -33.21585 -118.870918 -3.153239 -14.188664 -6.841387 -3.585458 -30.889934 5.998322 89.882985 -18.910413 155.361614 -162.075832 22.849861 150.922537 49.228797 79.009155 -38.818285 0.689522 0.678722 -0.109685 -36.636226 -59.046676 17.421066 153.77941 -21.674921 -121.826696 2.538174 25.345149 3.198918 2.864694 7.938907 -1.719466 171.843357 -30.802146 -144.135146 145.120246 0.158858 179.177254 140.584458 -58.300972 162.694158 -20.239562 69.380486 -13.056472 -1.164412 -0.718254 0.9593 -0.000942 0.001636 5.6e-05 -11.240243 -28.253411 147.288786 22.224887 -44.138606 -118.888531 2.72792 -25.379502 -26.838005 -0.0019 -6.2e-05 -0.000799 12.725559 -27.157656 26.037696 12.848427 50.636488 -109.278923 34.267531 -46.874316 107.09317
0.029500000000000002 80.052 -0.10859999999999999 -18.836948 82.35299 -15.220918 -4.300716 0.374529 110.705891 -5.818753 -2.239392 -105.57682 1.758563 32.088544 166.511279 -10.530425 41.388344 -174.405707 -0.000738 0.0 -0.000181 -0.000981 0.0 -0.001472 -152.550522 12.292272 158.061648 132.578623 5.732936 155.24261 -5.005551 9.155133 31.680052 -3.910911 14.924744 0.351162 -6.459683 6.231215 1.333764 -150.17752 -57.891131 115.314652 -67.701921 43.244806 55.556469 -158.680128 -0.936864 112.668986 160.45914 -74.184541 127.271755 -178.530935 -45.655509 141.873239 -9.980994 50.311237 21.94344 7.06928 -24.48139 -4.892703 -123.754677 -30.306488 -121.553662 -114.334312 -40.738513 -113.491173 -2.852564 -66.035714 14.535815 102.577933 -12.219962 125.58123 158.019797 -38.973175 147.31211 1.374276 30.331649 -4.626805 15.752264 14.426217 -4.355268 -10.572457 -9.659245 -2.313536 -107.133249 -76.30048 -56.507337 1.73588 27.642221 -1.936062 151.757014 17.222176 -137.744056 172.077737 -31.005796 -143.697729 145.111702 -0.661394 178.919823 152.801865 -22.076617 175.903259 26.286174 -38.654293 25.333939 -157.329123 85.404403 116.273314 -0.007583 0.000924 -0.004425 -9.677011 -28.194798 -138.103291 -52.897891 -29.420228 -110.917359 155.014661 28.087068 139.538203 0.002375 -3e-06 0.000403 12.184877 -28.811382 116.96946 47.129183 -20.457721 -59.748496 -50.99149 10.780292 -31.467298
